General
Complete name                            : Dark.Shadows.(2012).BRRip.720p.x264.Eng.AAC.5.1.AMX.mp4
Format                                   : MPEG-4
Format profile                           : Base Media
Codec ID                                 : isom
File size                                : 2.05 GiB
Duration                                 : 1h 53mn
Overall bit rate mode                    : Variable
Overall bit rate                         : 2 591 Kbps

Video
ID                                       : 1
Format                                   : AVC
Format/Info                              : Advanced Video Codec
Format profile                           : High@L4.0
Format settings, CABAC                   : Yes
Format settings, ReFrames                : 8 frames
Codec ID                                 : avc1
Codec ID/Info                            : Advanced Video Coding
Duration                                 : 1h 53mn
Bit rate                                 : 2 267 Kbps
Maximum bit rate                         : 16.1 Mbps
Width                                    : 1 280 pixels
Height                                   : 704 pixels
Display aspect ratio                     : 16:9
Frame rate mode                          : Constant
Frame rate                               : 23.976 fps
Color space                              : YUV
Chroma subsampling                       : 4:2:0
Bit depth                                : 8 bits
Scan type                                : Progressive
Bits/(Pixel*Frame)                       : 0.105
Stream size                              : 1.79 GiB (87%)
Writing library                          : x264 core 125 r2208 d9d2288

Audio
ID                                       : 2
Format                                   : AAC
Format/Info                              : Advanced Audio Codec
Format profile                           : LC
Codec ID                                 : 40
Duration                                 : 1h 53mn
Bit rate mode                            : Variable
Bit rate                                 : 321 Kbps
Maximum bit rate                         : 402 Kbps
Channel(s)                               : 6 channels
Channel positions                        : Front: L C R, Side: L R, LFE
Sampling rate                            : 48.0 KHz
Compression mode                         : Lossy
Stream size                              : 260 MiB (12%)
Language                                 : English
